<?xml version="1.0" encoding="UTF-8" standalone="no"?>
<!-- Created with Inkscape (http://www.inkscape.org/) -->

<svg
   width="132.29166mm"
   height="132.29167mm"
   viewBox="0 0 132.29166 132.29167"
   version="1.1"
   id="svg1"
   xml:space="preserve"
   xmlns:xlink="http://www.w3.org/1999/xlink"
   xmlns="http://www.w3.org/2000/svg"
   xmlns:svg="http://www.w3.org/2000/svg"><defs
     id="defs1"><linearGradient
       id="linearGradient31"><stop
         style="stop-color:#3b3b3b;stop-opacity:1;"
         offset="0"
         id="stop32" /><stop
         style="stop-color:#909090;stop-opacity:0.75471699;"
         offset="1"
         id="stop33" /></linearGradient><linearGradient
       id="linearGradient25"><stop
         style="stop-color:#000000;stop-opacity:1;"
         offset="0"
         id="stop24" /><stop
         style="stop-color:#808080;stop-opacity:1;"
         offset="1"
         id="stop25" /></linearGradient><linearGradient
       id="linearGradient21"><stop
         style="stop-color:#000000;stop-opacity:1;"
         offset="0"
         id="stop23" /><stop
         style="stop-color:#e6e6e6;stop-opacity:1;"
         offset="1"
         id="stop22" /></linearGradient><linearGradient
       id="linearGradient19"><stop
         style="stop-color:#d7d7d7;stop-opacity:0.98928571;"
         offset="0"
         id="stop21" /><stop
         style="stop-color:#717171;stop-opacity:1;"
         offset="1"
         id="stop20" /></linearGradient><linearGradient
       id="linearGradient10"><stop
         style="stop-color:#000000;stop-opacity:1;"
         offset="0"
         id="stop10" /><stop
         style="stop-color:#808080;stop-opacity:1;"
         offset="1"
         id="stop11" /></linearGradient><radialGradient
       xlink:href="#linearGradient25"
       id="radialGradient11"
       cx="56.412701"
       cy="124.27435"
       fx="56.412701"
       fy="124.27435"
       r="8.4721909"
       gradientTransform="matrix(0.9474818,-0.02625873,0.06559085,2.3666847,-5.754142,-168.36253)"
       gradientUnits="userSpaceOnUse" /><radialGradient
       xlink:href="#linearGradient10"
       id="radialGradient11-5"
       cx="56.412701"
       cy="124.27435"
       fx="56.412701"
       fy="124.27435"
       r="8.4721909"
       gradientTransform="matrix(1.7352445,0,0,2.3675934,51.650757,-170.59401)"
       gradientUnits="userSpaceOnUse" /><radialGradient
       xlink:href="#linearGradient19"
       id="radialGradient21"
       cx="104.16377"
       cy="153.5184"
       fx="104.16377"
       fy="153.5184"
       r="55.454071"
       gradientTransform="matrix(0.99989838,-0.01425587,0.02407062,1.6882992,-3.6847059,-104.18164)"
       gradientUnits="userSpaceOnUse" /><radialGradient
       xlink:href="#linearGradient21"
       id="radialGradient23"
       cx="-147.08011"
       cy="-127.66313"
       fx="-147.08011"
       fy="-127.66313"
       r="8.7081556"
       gradientTransform="matrix(-1.1473359,-0.03056293,0.10351613,-3.8860079,-304.28805,-627.83007)"
       gradientUnits="userSpaceOnUse" /><linearGradient
       xlink:href="#linearGradient31"
       id="linearGradient33"
       x1="89.493027"
       y1="169.01361"
       x2="103.00587"
       y2="169.01361"
       gradientUnits="userSpaceOnUse"
       spreadMethod="reflect" /></defs><g
     id="layer1"
     transform="translate(-39.687501,-79.374998)"><path
       style="fill:url(#radialGradient21);stroke:#000000;stroke-width:2;stroke-dasharray:none;stroke-opacity:1"
       d="m 54.900954,114.20656 c 1.91032,-2.64779 3.07229,-5.77355 4.87658,-8.4947 1.81982,-2.74456 3.83873,-5.36169 5.97776,-7.865463 2.26443,-2.650563 4.74397,-5.113263 7.23623,-7.550848 1.22049,-1.193717 3.03637,-1.921857 3.77542,-3.460803 0.68251,-1.421199 -0.50739,-3.373945 0.31462,-4.71928 0.31883,-0.521814 0.98597,-1.114826 1.57309,-0.943856 1.12576,0.327821 0.95667,2.148787 1.5731,3.146187 0.27567,0.446051 0.45054,1.080704 0.94385,1.258474 2.5366,0.91409 5.21707,-1.381884 7.86547,-1.887712 2.18519,-0.417358 4.39054,-0.752557 6.60699,-0.943856 3.44957,-0.297728 6.921736,-0.423982 10.382406,-0.314618 3.36898,0.106466 6.72934,0.479201 10.06781,0.943856 2.85222,0.396978 5.66695,1.028517 8.4947,1.573093 0.5251,0.101125 1.06883,0.492613 1.57309,0.314619 0.77238,-0.272637 1.05505,-1.253262 1.5731,-1.887712 0.42471,-0.520143 0.60259,-1.429038 1.25847,-1.573094 0.45809,-0.100614 1.03717,0.215726 1.25848,0.629238 0.39896,0.745466 -0.26208,1.673071 -0.31462,2.516949 -0.0391,0.628021 -0.3212,1.346632 0,1.887712 1.34156,2.259906 4.81735,2.200933 6.92161,3.775422 2.13751,1.599365 3.98107,3.590078 5.66314,5.663136 1.81443,2.236192 3.48494,4.634466 4.71927,7.236226 1.03779,2.18749 1.03859,4.79845 2.20233,6.92161 0.39369,0.71826 0.94829,1.35808 1.5731,1.88771 1.3446,1.13977 3.36612,1.37928 4.56197,2.67426 1.22512,1.32668 1.85385,3.14304 2.35964,4.87659 0.50279,1.72328 0.80299,3.56181 0.62923,5.34852 -0.14927,1.53496 -0.85402,2.96841 -1.41578,4.40466 -0.58964,1.50754 -1.4105,2.91545 -2.04502,4.40466 -0.39696,0.93167 -0.93051,1.83333 -1.10117,2.83156 -0.27407,1.60312 0.19201,3.25059 0.15731,4.8766 -0.0572,2.68117 -0.14685,5.37994 -0.60225,8.02277 -0.52386,3.04013 -1.4654,6.00018 -2.43597,8.92846 -1.07667,3.24838 -2.1578,6.52768 -3.74843,9.55771 -1.6976,3.23379 -3.86712,6.21415 -6.12389,9.08578 -1.75978,2.23923 -3.76086,4.28167 -5.75528,6.31471 -1.28539,1.31029 -2.84839,2.35564 -3.9979,3.78661 -1.01577,1.26448 -1.69576,2.76582 -2.50577,4.17101 -1.13697,1.97238 -2.4257,3.87717 -3.3035,5.97775 -1.16808,2.79521 -1.8268,5.78052 -2.57091,8.71717 -0.66611,2.62878 -1.25156,5.28181 -1.69225,7.95762 -0.35636,2.1638 -0.22602,4.40887 -0.76746,6.53393 -0.47847,1.87791 -0.30565,5.36251 -2.16743,5.3946 -11.54628,0.19902 -21.860666,-0.49854 -29.455016,-0.28764 -2.62918,0.073 -2.25584,-4.7613 -3.14619,-7.23622 -1.08987,-3.02954 -1.62937,-6.23591 -2.67426,-9.28126 -0.91642,-2.67094 -2.13919,-5.22733 -3.14618,-7.86546 -0.87549,-2.2936 -1.67994,-4.61369 -2.51695,-6.92161 -0.89353,-2.46375 -1.69573,-4.9623 -2.67426,-7.39354 -0.38565,-0.95818 -0.69899,-1.96335 -1.25848,-2.83157 -1.3681,-2.12304 -3.36332,-3.76888 -5.0339,-5.66313 -1.47476,-1.67222 -3.11527,-3.21491 -4.40465,-5.0339 -1.6023,-2.26042 -2.95132,-4.71034 -4.09005,-7.23623 -1.25401,-2.78164 -2.3076,-5.6778 -2.98887,-8.65201 -1.09643,-4.78662 -1.24612,-9.74313 -1.73041,-14.62977 -0.25939,-2.61738 0.33973,-5.42025 -0.62923,-7.86546 -0.61847,-1.56072 -2.40473,-2.42657 -3.14619,-3.93274 -1.16835,-2.37332 -1.89407,-5.06285 -1.88771,-7.70815 0.004,-1.7296 0.44918,-3.50531 1.25847,-5.0339 0.92097,-1.73953 2.7811,-2.80845 3.93274,-4.40467 z"
       id="path1" /><ellipse
       style="fill:url(#radialGradient11);stroke:#000000;stroke-width:2.12819;stroke-dasharray:none;stroke-opacity:1"
       id="path2"
       cx="57.181938"
       cy="124.27435"
       rx="7.4080958"
       ry="10.318318" /><ellipse
       style="fill:url(#radialGradient11-5);stroke:#000000;stroke-width:2.12819;stroke-dasharray:none;stroke-opacity:1"
       id="path2-4"
       cx="150.8754"
       cy="123.63713"
       rx="7.4080958"
       ry="10.318318" /><ellipse
       style="fill:url(#radialGradient23);stroke:#000000;stroke-width:2.18001;stroke-dasharray:none;stroke-opacity:1"
       id="path2-3"
       cx="-147.17644"
       cy="-127.85564"
       rx="7.6181507"
       ry="10.528373"
       transform="rotate(178.29267)" /><path
       style="fill:url(#linearGradient33);fill-opacity:1;stroke:#000000;stroke-width:2;stroke-linecap:round;stroke-dasharray:none;stroke-opacity:1"
       d="m 103.19491,118.24398 c 0,0 -0.15088,-1.03662 0,-1.52046 0.40724,-1.30597 1.20156,-2.60715 2.33266,-3.37657 0.8219,-0.55909 1.9303,-0.87225 2.90463,-0.6753 0.96316,0.19469 1.80643,0.93733 2.38663,1.7304 0.74221,1.01452 1.00747,2.33556 1.18541,3.57994 0.20797,1.45436 0.029,2.94737 -0.15731,4.40466 -0.12264,0.95907 -0.41949,1.88771 -0.62924,2.83157 -0.20975,0.94386 -0.62384,1.8647 -0.62924,2.83157 -0.006,1.01811 0.44877,1.98686 0.62924,2.98887 0.18797,1.04367 0.29597,2.10043 0.47193,3.14619 0.12025,0.71465 0.22627,1.43333 0.39886,2.13717 0.21591,0.88052 0.62959,1.70971 0.79445,2.60119 0.37972,2.05339 0.54745,4.16446 0.43377,6.24957 -0.0664,1.21718 -0.65076,2.38005 -0.64832,3.59904 0.002,0.9091 0.41411,1.77659 0.49424,2.68216 0.17945,2.02814 -9.7e-4,4.0723 -0.0349,6.10807 -0.0294,1.76155 -0.0694,3.52324 -0.14613,5.28335 -0.0947,2.17231 -0.17249,4.34789 -0.38769,6.51158 -0.30275,3.04408 -0.54421,6.1172 -1.26965,9.08904 -0.79914,3.27375 -2.61855,6.24613 -3.37192,9.53071 -0.76729,3.34521 -0.83131,6.81478 -1.13934,10.23301 -0.2736,3.03623 -0.47089,6.07952 -0.62924,9.12394 -0.15534,2.98668 -0.27813,5.97614 -0.31462,8.96663 -0.0248,2.0349 0.14292,4.07124 0.0652,6.1048 -0.0326,0.85168 -0.0391,1.52643 -0.22247,2.54722 -1.70168,-0.0346 -3.30349,0 -3.30349,0 0.0168,-2.75953 0.004,-5.60925 -0.0191,-8.41373 -0.0251,-2.99545 -0.0589,-5.99102 -0.13033,-8.98572 -0.0735,-3.07812 -0.13864,-6.1575 -0.30671,-9.23191 -0.19303,-3.5309 0.0511,-7.14707 -0.80564,-10.57788 -0.83212,-3.33213 -3.136037,-6.15067 -4.139378,-9.4353 -1.019211,-3.33658 -1.323721,-6.8522 -1.868632,-10.29816 -0.334582,-2.11587 -0.635025,-4.23837 -0.859613,-6.36872 -0.168356,-1.59695 -0.334102,-3.19803 -0.365322,-4.80352 -0.02754,-1.41649 0.0751,-2.83298 0.157308,-4.24735 0.06767,-1.16428 0.394819,-2.32757 0.276449,-3.48779 -0.133674,-1.31022 -0.95371,-2.48578 -1.101164,-3.79452 -0.202379,-1.79623 -0.01079,-3.63559 0.314619,-5.41366 0.315385,-1.7233 1.260771,-3.29097 1.573093,-5.01482 0.485411,-2.67922 0.701208,-5.44563 0.444938,-8.15638 -0.135073,-1.42877 -0.839826,-2.75724 -1.036006,-4.17891 -0.229485,-1.66303 -0.431449,-3.37765 -0.15731,-5.0339 0.206127,-1.24535 0.386459,-2.70827 1.33154,-3.54505 0.910368,-0.80605 2.344721,-1.05376 3.545048,-0.85961 0.97668,0.15797 1.84288,0.84888 2.51695,1.5731 0.68719,0.73832 1.41578,2.67425 1.41578,2.67425 v 0"
       id="path3" /><ellipse
       style="fill:none;stroke:#000000;stroke-width:2;stroke-dasharray:none;stroke-opacity:1"
       id="path4"
       cx="103.50369"
       cy="126.25114"
       rx="2.1690726"
       ry="2.2246897" /><g
       id="g11"><path
         style="fill:none;stroke:#000000;stroke-width:2;stroke-linecap:round;stroke-dasharray:none;stroke-opacity:1"
         d="m 97.218941,112.12436 -4.115676,-10.3448"
         id="path5" /><path
         style="fill:none;stroke:#000000;stroke-width:2;stroke-linecap:round;stroke-dasharray:none;stroke-opacity:1"
         d="m 108.67609,111.90189 4.56062,-10.12233"
         id="path6" /><ellipse
         style="fill:#808080;stroke:#000000;stroke-width:2;stroke-linecap:round;stroke-dasharray:none;stroke-opacity:1"
         id="path7"
         cx="57.305832"
         cy="120.1127"
         rx="4.3381453"
         ry="3.5595036"
         transform="rotate(-16.716315)" /><ellipse
         style="fill:#808080;stroke:#000000;stroke-width:2;stroke-linecap:round;stroke-dasharray:none;stroke-opacity:1"
         id="path7-8"
         cx="140.57684"
         cy="58.436016"
         rx="4.3381453"
         ry="3.5595036"
         transform="rotate(17.669751)" /></g><ellipse
       style="fill:#e6e6e6;stroke:#000000;stroke-width:2;stroke-linecap:round;stroke-dasharray:none;stroke-opacity:1"
       id="path21"
       cx="52.057739"
       cy="124.47139"
       rx="1.5572828"
       ry="6.7853036" /><ellipse
       style="fill:#e6e6e6;stroke:#000000;stroke-width:2;stroke-linecap:round;stroke-dasharray:none;stroke-opacity:1"
       id="path21-3"
       cx="156.40253"
       cy="123.28187"
       rx="1.5572828"
       ry="6.7853036" /></g></svg>
